<svg id="Capa_1" enable-background="new 0 0 512 512" height="512" viewBox="0 0 512 512" width="512" xmlns="http://www.w3.org/2000/svg"><g><path d="m458.5 512h37.5c8.284 0 15-6.716 15-15v-362c0-8.284-6.716-15-15-15h-480c-8.284 0-15 6.716-15 15v362c0 8.284 6.716 15 15 15h37.5l14.5-4 15.5 4h52.5l120-16 120 16h52.5l15.5-12z" fill="#525cdd"/><path d="m511 497v-362c0-8.284-6.716-15-15-15h-240v376l120 16h52.5l15.5-12 14.5 12h37.5c8.284 0 15-6.716 15-15z" fill="#00337a"/><path d="m443.5 420c-8.284 0-15 6.716-15 15v77h30v-77c0-8.284-6.716-15-15-15z" fill="#ffb454"/><path d="m68.5 420c-8.284 0-15 6.716-15 15v77h30v-77c0-8.284-6.716-15-15-15z" fill="#ffdd54"/><path d="m136 15v497h55l65-13 65 13h55v-497c0-8.284-6.716-15-15-15h-210c-8.284 0-15 6.716-15 15z" fill="#6e75e2"/><path d="m376 512v-497c0-8.284-6.716-15-15-15h-105v499l65 13z" fill="#525cdd"/><path d="m316 420h-120c-8.284 0-15 6.716-15 15v77h30l15-13 15 13h30l14.754-12.787 15.246 12.787h30v-77c0-8.284-6.716-15-15-15z" fill="#ffdd54"/><path d="m316 420h-60v92h15l15-13 15 13h30v-77c0-8.284-6.716-15-15-15z" fill="#ffb454"/><circle cx="196" cy="75" fill="#c8ffff" r="15"/><circle cx="316" cy="75" fill="#acceff" r="15"/><circle cx="256" cy="75" fill="#c8ffff" r="15"/><path d="m271 75c0-8.284-6.716-15-15-15v30c8.284 0 15-6.716 15-15z" fill="#acceff"/><circle cx="196" cy="135" fill="#c8ffff" r="15"/><circle cx="316" cy="135" fill="#acceff" r="15"/><circle cx="256" cy="135" fill="#c8ffff" r="15"/><path d="m271 135c0-8.284-6.716-15-15-15v30c8.284 0 15-6.716 15-15z" fill="#acceff"/><circle cx="196" cy="195" fill="#c8ffff" r="15"/><circle cx="316" cy="195" fill="#acceff" r="15"/><circle cx="256" cy="195" fill="#c8ffff" r="15"/><path d="m271 195c0-8.284-6.716-15-15-15v30c8.284 0 15-6.716 15-15z" fill="#acceff"/><circle cx="196" cy="315" fill="#c8ffff" r="15"/><circle cx="316" cy="315" fill="#acceff" r="15"/><circle cx="256" cy="315" fill="#c8ffff" r="15"/><path d="m271 315c0-8.284-6.716-15-15-15v30c8.284 0 15-6.716 15-15z" fill="#acceff"/><circle cx="196" cy="375" fill="#c8ffff" r="15"/><circle cx="316" cy="375" fill="#acceff" r="15"/><circle cx="256" cy="375" fill="#c8ffff" r="15"/><path d="m271 375c0-8.284-6.716-15-15-15v30c8.284 0 15-6.716 15-15z" fill="#acceff"/><circle cx="196" cy="255" fill="#c8ffff" r="15"/><circle cx="316" cy="255" fill="#acceff" r="15"/><circle cx="256" cy="255" fill="#c8ffff" r="15"/><path d="m271 255c0-8.284-6.716-15-15-15v30c8.284 0 15-6.716 15-15z" fill="#acceff"/><path d="m271 450h30v62h-30z" fill="#acceff"/><path d="m211 450h30v62h-30z" fill="#c8ffff"/><circle cx="443.5" cy="195" fill="#acceff" r="15"/><circle cx="443.5" cy="255" fill="#acceff" r="15"/><circle cx="443.5" cy="315" fill="#acceff" r="15"/><circle cx="443.5" cy="375" fill="#acceff" r="15"/><g fill="#c8ffff"><circle cx="68.5" cy="195" r="15"/><circle cx="68.5" cy="255" r="15"/><circle cx="68.5" cy="315" r="15"/><circle cx="68.5" cy="375" r="15"/></g></g></svg>