<?xml version="1.0" encoding="UTF-8" standalone="no"?>
<!DOCTYPE svg PUBLIC "-//W3C//DTD SVG 1.1//EN" "http://www.w3.org/Graphics/SVG/1.1/DTD/svg11.dtd">
<svg version="1.1" xmlns="http://www.w3.org/2000/svg" xmlns:xlink="http://www.w3.org/1999/xlink" preserveAspectRatio="xMidYMid meet" viewBox="0 0 640 640" width="640" height="640"><defs><path d="M545.5 205.98L413.35 205.98L413.35 445.5L629.87 445.5L629.87 337.69C614.72 285.33 606.3 256.24 604.62 250.42C597 224.1 572.9 205.98 545.5 205.98" id="h4xC92vFsZ"></path><path d="M575.75 258.79C571.87 245.42 559.43 236.06 545.5 236.06C538.7 236.06 504.67 236.06 443.43 236.06L443.43 336.59L598.26 336.59C584.75 289.91 577.25 263.98 575.75 258.79Z" id="f6uKLP01tQ"></path><path d="M443.38 336.55L443.38 236.02L598.28 336.55L443.38 336.55Z" id="c1NZVIk1x"></path><path d="M575.75 258.79C571.87 245.42 559.43 236.06 545.5 236.06C538.7 236.06 504.67 236.06 443.43 236.06L598.26 336.59C584.75 289.91 577.25 263.98 575.75 258.79Z" id="f10EywRFT"></path><path d="M40 85.74C240.01 85.74 351.13 85.74 373.35 85.74C395.43 85.74 413.35 103.64 413.35 125.74C413.35 147.05 413.35 253.63 413.35 445.48L0 445.48C0 253.63 0 147.05 0 125.74C0 103.65 17.9 85.74 40 85.74" id="aDgeCpZJ4"></path><path d="M270.91 191.49L255.44 176.03L239.23 192.24L223.04 176.03L206.84 192.24L190.61 176.03L174.2 192.24L158.01 176.03L142.36 191.68L142.36 85.81L270.91 85.81L270.91 191.49Z" id="c3BrhZuXW9"></path><path d="M640 490.67L0.05 490.67L0.05 445.47C40.13 445.47 62.4 445.47 66.85 445.47C82.45 417.47 112.44 398.54 146.84 398.54C181.1 398.54 211.1 417.47 226.83 445.47C248.33 445.47 420.26 445.47 441.75 445.47C457.35 417.47 487.2 398.54 521.6 398.54C555.99 398.54 585.86 417.47 601.59 445.47C604.15 445.47 616.95 445.47 640 445.47L640 490.67Z" id="c1dD1Kwv6E"></path><path d="M585.47 490.39C585.47 525.66 556.87 554.26 521.6 554.26C486.32 554.26 457.75 525.66 457.75 490.39C457.75 455.11 486.33 426.51 521.6 426.51C556.89 426.51 585.47 455.11 585.47 490.39" id="b2wlURQL5S"></path><path d="M547.27 490.39C547.27 504.56 535.78 516.04 521.62 516.04C507.45 516.04 495.94 504.56 495.94 490.39C495.94 476.21 507.44 464.73 521.62 464.73C535.78 464.72 547.27 476.21 547.27 490.39" id="ah7w8Gsko"></path><path d="M210.66 490.39C210.66 525.66 182.05 554.26 146.79 554.26C111.51 554.26 82.91 525.66 82.91 490.39C82.91 455.11 111.51 426.51 146.79 426.51C182.05 426.51 210.66 455.11 210.66 490.39" id="csd4kgH0E"></path><path d="M172.44 490.39C172.44 504.56 160.96 516.04 146.79 516.04C132.62 516.04 121.12 504.56 121.12 490.39C121.12 476.21 132.62 464.73 146.79 464.73C160.96 464.73 172.44 476.21 172.44 490.39" id="d1rGz70e55"></path></defs><g><g><g><use xlink:href="#h4xC92vFsZ" opacity="1" fill="#ff7058" fill-opacity="1"></use><g><use xlink:href="#h4xC92vFsZ" opacity="1" fill-opacity="0" stroke="#000000" stroke-width="1" stroke-opacity="0"></use></g></g><g><use xlink:href="#f6uKLP01tQ" opacity="1" fill="#84dbff" fill-opacity="1"></use><g><use xlink:href="#f6uKLP01tQ" opacity="1" fill-opacity="0" stroke="#000000" stroke-width="1" stroke-opacity="0"></use></g></g><g><use xlink:href="#c1NZVIk1x" opacity="1" fill="#cdd6e0" fill-opacity="1"></use><g><use xlink:href="#c1NZVIk1x" opacity="1" fill-opacity="0" stroke="#000000" stroke-width="1" stroke-opacity="0"></use></g></g><g><use xlink:href="#f10EywRFT" opacity="1" fill="#f2f2f2" fill-opacity="1"></use><g><use xlink:href="#f10EywRFT" opacity="1" fill-opacity="0" stroke="#000000" stroke-width="1" stroke-opacity="0"></use></g></g><g><use xlink:href="#aDgeCpZJ4" opacity="1" fill="#058900" fill-opacity="1"></use><g><use xlink:href="#aDgeCpZJ4" opacity="1" fill-opacity="0" stroke="#000000" stroke-width="1" stroke-opacity="0"></use></g></g><g><use xlink:href="#c3BrhZuXW9" opacity="1" fill="#f2f2f2" fill-opacity="1"></use><g><use xlink:href="#c3BrhZuXW9" opacity="1" fill-opacity="0" stroke="#000000" stroke-width="1" stroke-opacity="0"></use></g></g><g><use xlink:href="#c1dD1Kwv6E" opacity="1" fill="#334a5e" fill-opacity="1"></use><g><use xlink:href="#c1dD1Kwv6E" opacity="1" fill-opacity="0" stroke="#000000" stroke-width="1" stroke-opacity="0"></use></g></g><g><use xlink:href="#b2wlURQL5S" opacity="1" fill="#40596b" fill-opacity="1"></use><g><use xlink:href="#b2wlURQL5S" opacity="1" fill-opacity="0" stroke="#000000" stroke-width="1" stroke-opacity="0"></use></g></g><g><use xlink:href="#ah7w8Gsko" opacity="1" fill="#acb3ba" fill-opacity="1"></use><g><use xlink:href="#ah7w8Gsko" opacity="1" fill-opacity="0" stroke="#000000" stroke-width="1" stroke-opacity="0"></use></g></g><g><use xlink:href="#csd4kgH0E" opacity="1" fill="#40596b" fill-opacity="1"></use><g><use xlink:href="#csd4kgH0E" opacity="1" fill-opacity="0" stroke="#000000" stroke-width="1" stroke-opacity="0"></use></g></g><g><use xlink:href="#d1rGz70e55" opacity="1" fill="#acb3ba" fill-opacity="1"></use><g><use xlink:href="#d1rGz70e55" opacity="1" fill-opacity="0" stroke="#000000" stroke-width="1" stroke-opacity="0"></use></g></g></g></g></svg>