<?xml version="1.0" encoding="utf-8"?>
<!-- Generator: Adobe Illustrator 24.3.0, SVG Export Plug-In . SVG Version: 6.00 Build 0)  -->
<svg version="1.1" id="Layer_1" xmlns="http://www.w3.org/2000/svg" xmlns:xlink="http://www.w3.org/1999/xlink" x="0px" y="0px"
	 viewBox="0 0 1920 1080" style="enable-background:new 0 0 1920 1080;" xml:space="preserve">
<style type="text/css">
	.st0{fill:#000926;}
</style>
<g>
	<path class="st0" d="M1027.1,419.7h15v71.7h44.9v13.7h-59.9V419.7z"/>
	<path class="st0" d="M1090,473.2V473c0-18.4,14.6-33.7,34.4-33.7c19.9,0,34.3,15,34.3,33.4v0.2c0,18.2-14.6,33.5-34.5,33.5
		C1104.5,506.5,1090,491.5,1090,473.2z M1143.9,473.2V473c0-11.3-8.2-20.7-19.8-20.7c-11.8,0-19.4,9.3-19.4,20.5v0.2
		c0,11.2,8.3,20.6,19.6,20.6C1136.5,493.6,1143.9,484.3,1143.9,473.2z"/>
	<path class="st0" d="M1167.5,517.1l5.5-11.1c7,4.3,14.2,6.7,22.9,6.7c13.2,0,20.4-6.6,20.4-19.6v-4.9c-5.4,6.8-12.1,11.7-22.7,11.7
		c-15.2,0-29.3-11.2-29.3-30.1v-0.2c0-19,14.1-30.2,29.3-30.2c10.9,0,17.6,5,22.6,11v-9.6h14.8v51.2c0,10.7-2.7,18.8-8.2,24.3
		c-5.9,5.9-14.8,8.7-26.5,8.7C1185.5,524.8,1175.9,522.3,1167.5,517.1z M1216.4,469.7v-0.2c0-10.4-8.7-17.6-18.9-17.6
		c-10.2,0-18.3,7-18.3,17.6v0.2c0,10.5,8.2,17.7,18.3,17.7C1207.7,487.4,1216.4,480.2,1216.4,469.7z"/>
	<path class="st0" d="M1243.6,416.8h15.9v14h-15.9V416.8z M1244.1,440.7h14.9v64.4h-14.9V440.7z"/>
	<path class="st0" d="M1266.9,496.7l6.6-10c7.2,5.2,14.4,7.9,21.1,7.9c6.3,0,10-2.7,10-7v-0.2c0-4.9-6.8-6.7-14.4-9
		c-9.4-2.6-20.1-6.6-20.1-18.8v-0.2c0-12.3,10.1-19.8,22.9-19.8c8.2,0,16.8,2.8,23.7,7.3l-5.9,10.5c-6.2-3.8-12.8-6.1-18.2-6.1
		c-5.7,0-9,2.8-9,6.3v0.2c0,4.6,7,6.8,14.5,9.1c9.3,2.9,20,7.2,20,18.8v0.2c0,13.5-10.5,20.2-23.9,20.2
		C1284.9,506.3,1275,503.1,1266.9,496.7z"/>
	<path class="st0" d="M1328.9,487.3v-33.9h-8.2v-12.7h8.2V423h14.8v17.7h17.3v12.7h-17.3v31.6c0,5.7,2.9,8.1,7.9,8.1
		c3.2,0,6.2-0.7,9.1-2.2v12.1c-3.8,2.1-7.6,3.3-13.3,3.3C1336.6,506.2,1328.9,501.4,1328.9,487.3z"/>
	<path class="st0" d="M1370.2,416.8h15.9v14h-15.9V416.8z M1370.7,440.7h14.9v64.4h-14.9V440.7z"/>
	<path class="st0" d="M1395.2,473.2V473c0-18.3,14.2-33.7,33.5-33.7c12.1,0,19.5,4.5,25.7,11.1l-9.3,9.9c-4.5-4.8-9.3-8-16.6-8
		c-10.7,0-18.7,9.3-18.7,20.5v0.2c0,11.5,7.9,20.6,19.3,20.6c7,0,12-3.2,16.7-7.9l8.9,8.8c-6.3,7.2-13.8,12.1-26.3,12.1
		C1409.3,506.5,1395.2,491.5,1395.2,473.2z"/>
</g>
<g>
	<path class="st0" d="M1020.1,606.9v-0.2c0-23.5,17.7-44.2,43.7-44.2c26,0,43.4,20.4,43.4,43.9v0.2c0,23.5-17.7,44.2-43.7,44.2
		C1037.6,650.9,1020.1,630.5,1020.1,606.9z M1097.2,606.9v-0.2c0-19.4-14.2-35.2-33.7-35.2c-19.5,0-33.4,15.6-33.4,35v0.2
		c0,19.4,14.2,35.3,33.7,35.3C1083.3,642,1097.2,626.3,1097.2,606.9z"/>
	<path class="st0" d="M1115.3,562.2h10.7v10.4h-10.7V562.2z M1115.9,586.3h9.4v63.1h-9.4V586.3z"/>
	<path class="st0" d="M1137,560.4h9.4v89h-9.4V560.4z"/>
	<path class="st0" d="M1184.4,564h9.6v76.5h48.1v8.9h-57.7V564z"/>
	<path class="st0" d="M1248.5,564h9.6v76.5h48.1v8.9h-57.7V564z"/>
	<path class="st0" d="M1303,606.9v-0.2c0-24.1,18.2-44.2,43.2-44.2c15.5,0,24.9,5.4,33.3,13.5l-6.6,7.1
		c-7.3-6.8-15.1-11.7-26.8-11.7c-18.9,0-33.1,15.4-33.1,35v0.2c0,19.8,14.2,35.3,33.1,35.3c11.7,0,19.4-4.5,27.6-12.3l6.3,6.2
		c-8.8,9-18.8,15-34.1,15C1321.1,650.9,1303,631.5,1303,606.9z"/>
</g>
<g>
	<g>
		<path class="st0" d="M1485.4,434.1h-6.5v-2h15.1v2h-6.5v17.1h-2.2V434.1z"/>
		<path class="st0" d="M1496.6,432.1h2.2l7,10.4l7-10.4h2.2v19.1h-2.2v-15.5l-7,10.3h-0.1l-7-10.2v15.5h-2.1V432.1z"/>
	</g>
</g>
<g>
	<path class="st0" d="M431,422.8c-16.9,35.6-26.4,75.4-26.4,117.4s9.5,81.8,26.4,117.4V422.8z"/>
	<path class="st0" d="M487.8,508.9L706.4,268c-9.3-0.9-18.6-1.4-28.1-1.4c-74,0-141.2,29.4-190.4,77.2V508.9z"/>
	<path class="st0" d="M523.7,538l-35.9,37.8v160.9c49.3,47.8,116.4,77.2,190.4,77.2c32.1,0,62.9-5.6,91.6-15.8L523.7,538z"/>
	<path class="st0" d="M927.9,428.1c-5.4,1.2-11.1,1.3-16.9,0.3c-2.4-0.4-4,0.5-5,2.8c-3.3,8.6-6.1,17.4-8.4,26.2
		c-0.2,0.8-0.2,1.6,0,2.4c4.7,17.6,7.8,35.6,9.4,54c1.6,18.3,0.7,30.3-2.7,35.7c-1,1.7-2.3,2.9-3.9,3.6c-2.1,1-4.3,1-6.4,0.1
		c-5-2-8.4-5.6-10.2-10.7c-3.5-8.2-4.7-19.9-3.7-35c1-15.1,3.6-31,7.7-47.6c0.2-0.9,0.1-1.8-0.1-2.7c-1.3-4.8-2.7-9.1-4.1-12.8
		c-0.8,15.6-4.1,25.4-9.8,29.6c-4.1,2.8-8.4,3.1-12.9,0.9c-2-0.8-3.6-2.4-5-4.6c-1.4-2.3-2.4-4.7-3-7.3c0,0,0,0,0-0.1
		c-1.4,2.7-2.8,5.4-4.2,8c-2.1,3.7-5,7.7-8.5,12c-3.5,4.3-7.1,8.1-11,11.4c-3.8,3.3-8.3,6-13.5,8.2c-5.2,2.2-10.5,3.4-15.9,3.7
		c-9.7-0.4-18.6-3.4-26.4-9.2c0-0.1-0.5-0.4-1.2-0.9c-0.8-0.5-1.5-0.9-2-1.2c-0.6-0.3-1.3-0.6-2.1-1c-0.8-0.4-1.7-0.5-2.5-0.5
		c-0.8,0-1.5,0.2-2.2,0.6c-8.1,3.9-15.6,17.9-22.6,42c-0.6,2.1-2.1,3.2-4.4,3.1c-2.3-0.1-3.7-1.2-4.1-3.5l-4.8-23.3
		c-1.2,2.4-2.6,5.3-4.5,8.8c-3.3,6.4-6.8,12.2-10.5,17.6c-3.7,5.4-8.4,10.9-14.3,16.5c-5.8,5.6-11.8,9.7-17.9,12.5
		c-9.3,4.3-19,5.4-28.9,3.2c-3.8-0.8-7-2.5-9.8-5.3c-2.7-2.8-4.7-5.7-5.9-8.6c-1.2-2.9-2.1-6.2-2.6-9.9c-0.6-3.7-0.8-6.3-0.9-7.9
		c0-1.6,0-2.9,0-3.9c0.2-1.2,0.7-2.2,1.6-2.9c0.9-0.8,1.9-1.1,3.1-1.1c1.2,0.1,2.2,0.5,3,1.4c0.8,0.9,1.2,1.9,1.1,3
		c0,0.6,0,1.5,0,2.7c0,1.2,0.1,3.2,0.5,6c0.3,2.8,0.9,5.3,1.7,7.5c0.8,2.2,2,4.4,3.8,6.5c1.7,2.1,3.8,3.4,6.3,3.9
		c6,1.2,11.9,1,17.7-0.7c5.8-1.7,11-4.3,15.5-7.8c4.5-3.5,8.8-7.8,13-12.8c4.2-5,7.7-9.8,10.4-14.4c2.8-4.6,5.3-9.2,7.7-14
		c2.3-4.7,3.9-8.2,4.8-10.4c0.9-2.2,1.4-3.6,1.7-4.4c0.1-0.3,0.5-0.4,0.6-0.7c0.1-0.7,0.3-1.3,0.7-1.9c0.7-1,1.6-1.7,2.8-1.9
		c1.2-0.2,2.3,0,3.3,0.7c1,0.7,1.6,1.6,1.9,2.7l3.3,16.7c0.1,0.6,0.5,0.8,1.1,0.9c0.6,0,1-0.3,1.3-0.9c6.5-15.8,13.7-25.2,21.6-28.2
		c3.4-1.3,6.7-1.2,10,0.2c2.6,1,5,2.3,7.3,3.9c6.3,4.7,13.4,7.4,21.2,7.9c3.8-0.1,7.4-0.8,11-2.2c3.6-1.4,6.8-3,9.6-5
		c2.8-2,5.6-4.3,8.3-7.1c2.7-2.7,5-5.5,7-8.2c2-2.8,3.9-5.6,5.8-8.7c1.9-3.1,3.4-5.8,4.5-8.1c1.1-2.4,2.2-4.7,3.3-7
		c1-2.3,1.7-3.9,2-4.8c0.3-0.9,0.5-1.5,0.7-2c0.2-0.5,0.7-0.7,1-1.1c0.9-4.8,2.4-9.4,4.8-13.8c4.3-7.9,10.3-14.1,18.1-18.5
		c1.1-0.6,2.2-0.8,3.4-0.4c1.2,0.3,2.1,1,2.6,2.1c0.6,1.1,0.7,2.2,0.4,3.4c-0.3,1.2-1.1,2-2.2,2.5c-6.3,3.7-11.2,8.8-14.6,15.2
		c-3.4,6.4-4.9,13.2-4.5,20.3c-0.3,4.8,1,9,3.9,12.8c1.8,0.8,3.2,0.7,4.2-0.1c2.7-1.9,4.6-6.9,5.5-15c1-8.2,1.1-16.3,0.5-24.5
		c-0.2-2,0.7-3.4,2.5-4.2c1.8-0.8,3.5-0.6,4.9,0.7c2.4,2.7,4.4,5.7,5.9,9.1c0.5,1,1,1.9,1.5,2.6c0.6,0.7,1.3,1.3,2,1.8
		c0.8,0.5,1.6,0.3,2.3-0.5c0.8-0.8,1.6-2.4,2.3-4.5c0.3-1,1.3-3.6,2.9-7.8c0.8-2,2.2-3.5,4.2-4.5c1.9-1,4-1.3,6.2-0.8
		c5,1.3,9.8,1.5,14.5,0.8c-32.1-65.6-89.6-116.3-159.7-139.6L564.8,500.1L818,775.5c80.2-47.7,133.9-135.2,133.9-235.3
		C951.9,500.3,943.3,462.3,927.9,428.1z M626.8,527.5c-2,0.9-3.8,0.5-5.2-1.3c-1.4-1.8-1.4-3.6-0.1-5.5c2.2-2.7,3.9-5.8,5.1-9.1
		c0.4-1.2,1.2-2,2.3-2.5c1.1-0.5,2.2-0.5,3.3-0.1c1.2,0.4,2,1.1,2.5,2.2c0.5,1,0.6,2.2,0.1,3.4c-1.5,4.2-3.6,8.1-6.4,11.5
		C628.1,526.6,627.5,527.1,626.8,527.5z"/>
	<path class="st0" d="M892.4,473.7c-1.2,0.1-2.2,4.3-3,12.7c-0.8,8.4-1,17.7-0.8,27.8c0.3,10.1,1.1,16.9,2.6,20.5
		c1.7,4.1,3.4,6.1,4.9,5.9c0.9-0.1,1.5-0.9,1.7-2.2c0.2-1.3,0.4-4,0.5-8.1c0.1-0.9,0.1-1.6,0.1-2.2c0.3-8.2-0.2-19.4-1.6-33.4
		C895.4,480.6,894,473.6,892.4,473.7z"/>
</g>
</svg>
